<svg xmlns="http://www.w3.org/2000/svg" viewBox="0 0 512 512"><path fill="red" d="M400 32h-32c-17.673 0-32 14.327-32 32v288c0 35.29-28.71 64-64 64h-32c-35.29 0-64-28.71-64-64V64c0-17.673-14.327-32-32-32h-32c-17.673 0-32 14.327-32 32v288c0 70.58 57.42 128 128 128h96c70.58 0 128-57.42 128-128V64c0-17.673-14.327-32-32-32z" class="color4182c3 svgShape"/><path fill="#e16464" d="M272 480h-64c-70.58 0-128-57.42-128-128V64c0-17.673 14.327-32 32-32s32 14.327 32 32v288c0 35.29 28.71 64 64 64h64c35.29 0 64-28.71 64-64V64c0-17.673 14.327-32 32-32s32 14.327 32 32v288c0 70.58-57.42 128-128 128z" class="color64afe1 svgShape"/></svg>