<svg xmlns="http://www.w3.org/2000/svg" data-name="Layer 1" viewBox="0 0 128 128"><path fill="#ff4738" d="M63.31 2 43.09 13.75l-.29 99.61L64.69 126l20.23-11.75.28-99.61L63.31 2z"/><g style="isolation:isolate"><path fill="#ff4738" d="M64.97 26.39 85.2 14.64l-.28 99.61L64.69 126l.28-99.61z"/><path fill="#ff5952" d="M43.09 13.75 63.31 2 85.2 14.64 64.97 26.39 43.09 13.75z"/><path fill="#f42222" d="M64.97 26.39 64.69 126 42.8 113.36l.29-99.61 21.88 12.64z"/></g><path fill="#f7c9c9" d="M85 14.77c-2.33 1.41-16.25 9.18-19.42 11C62 23.71 45.24 14.84 43.34 13.9 45.11 15.08 61.41 24.71 65 26.76l.57 91.75.58-91.75c3.13-1.85 15.68-9.91 18.85-11.99Z"/></svg>