<svg xmlns="http://www.w3.org/2000/svg" viewBox="0 0 64 64"><path fill="#ef0000" d="m54.795 52.482-2.584-41.468a1.503 1.503 0 0 0-1.498-1.407h-6.881c-.626 0-1.191.395-1.407.981l-7.451 20.243a259.259 259.259 0 0 0-2.079 6.105c-.135.414-.525.662-.958.69a1 1 0 0 1-.948-.703 258.97 258.97 0 0 0-1.99-6.117l-7.125-20.199a1.499 1.499 0 0 0-1.414-1.001h-6.881c-.784 0-1.441.613-1.497 1.396L9.168 52.788a1.502 1.502 0 0 0 1.496 1.604h5.145c.791 0 1.449-.618 1.498-1.407l1.115-17.924c.072-1.206.143-2.429.206-3.654a1 1 0 0 1 1.948-.263c.234.708.459 1.385.695 2.081l6.758 19.9a1.497 1.497 0 0 0 1.42 1.018h4.092c.629 0 1.195-.396 1.41-.987l7.375-20.27c.347-.949.684-1.878 1.007-2.792a1 1 0 0 1 1.941.282c.074 1.464.15 2.896.223 4.252l1.052 18.347a1.503 1.503 0 0 0 1.498 1.414H53.337a1.502 1.502 0 0 0 1.475-1.785.78.78 0 0 1-.017-.122z" class="color00aeef svgShape"/><path fill="red" d="m56.787 52.3-2.58-41.411a3.506 3.506 0 0 0-3.494-3.283h-6.881c-1.461 0-2.78.921-3.284 2.291l-7.456 20.255a346.018 346.018 0 0 0-1.126 3.246 312.45 312.45 0 0 0-1.077-3.245L23.76 9.944a3.501 3.501 0 0 0-3.301-2.337h-6.881a3.513 3.513 0 0 0-3.492 3.257L7.173 52.648a3.506 3.506 0 0 0 .932 2.631 3.514 3.514 0 0 0 2.56 1.113h5.145a3.506 3.506 0 0 0 3.494-3.283l1.023-16.447 5.809 17.106a3.496 3.496 0 0 0 3.314 2.375h4.092a3.511 3.511 0 0 0 3.289-2.303l6.708-18.435 1.015 17.687a3.503 3.503 0 0 0 3.494 3.299h5.314a3.505 3.505 0 0 0 3.425-4.091zm-3.451 2.093H48.046a1.502 1.502 0 0 1-1.498-1.414l-1.052-18.347c-.072-1.357-.148-2.789-.223-4.252a1 1 0 0 0-1.941-.282c-.323.913-.66 1.843-1.007 2.792L34.95 53.16c-.215.59-.781.987-1.41.987h-4.092a1.497 1.497 0 0 1-1.42-1.018l-6.758-19.9c-.236-.695-.461-1.373-.695-2.081a.999.999 0 0 0-1.948.263 444.017 444.017 0 0 1-.206 3.654l-1.115 17.924a1.503 1.503 0 0 1-1.498 1.407h-5.145a1.5 1.5 0 0 1-1.496-1.604l2.913-41.785a1.507 1.507 0 0 1 1.497-1.396h6.881c.636 0 1.204.402 1.414 1.001l7.125 20.199c.744 2.2 1.395 4.2 1.99 6.117a1 1 0 0 0 .948.703c.433-.028.823-.277.958-.69.6-1.844 1.281-3.845 2.079-6.105l7.451-20.243a1.504 1.504 0 0 1 1.407-.981h6.881c.791 0 1.449.618 1.498 1.407l2.584 41.468c.003.042.008.084.016.125a1.498 1.498 0 0 1-1.473 1.781z" class="color000000 svgShape"/></svg>