<svg xmlns="http://www.w3.org/2000/svg" enable-background="new 0 0 64 64" viewBox="0 0 64 64"><path d="M24.8,24.46c-0.64-0.94-1.65-1.53-3.02-1.77c-0.39-0.07-0.8-0.11-1.2-0.11c-2.12,0-4.06,0.92-5.77,1.72
		c-1.26,0.6-2.44,1.15-3.35,1.15c-2.46,0-4.26-0.3-4.28-0.31c-0.1-0.02-0.21,0-0.31,0.05c-0.12,0.06-1.16,0.6-1.36,1.5
		c-0.07,0.29-0.06,0.75,0.32,1.24c0.75,0.96,2.84,1.99,4.91,1.99c0.92,0,1.75-0.2,2.46-0.59c1.56-0.86,3.18-1.43,4.02-1.43
		c0.28,0,0.37,0.06,0.38,0.08c0.02,0.03,0.04,0.24-0.17,0.7C16.02,31.7,8.66,46.85,2.82,48.72c-0.19,0.06-0.32,0.22-0.35,0.42
		c-0.02,0.19,0.07,0.38,0.24,0.48c0.27,0.17,0.71,0.26,1.28,0.26c3.77,0,15.8-4.05,21.44-22.08C25.45,27.73,25.8,25.95,24.8,24.46z
		 M24.47,27.55C19.39,43.74,9.14,48.27,4.85,48.82c5.64-3.68,11.65-15.79,13.49-19.72c0.33-0.71,0.36-1.25,0.11-1.66
		c-0.23-0.36-0.64-0.54-1.23-0.54c-1.23,0-3.13,0.8-4.5,1.55c-0.57,0.31-1.23,0.47-1.98,0.47c-1.84,0-3.61-0.95-4.13-1.61
		c-0.15-0.19-0.14-0.32-0.12-0.4c0.06-0.29,0.44-0.59,0.7-0.75c0.52,0.08,2.14,0.29,4.27,0.29c1.13,0,2.42-0.6,3.78-1.24
		c1.61-0.76,3.45-1.63,5.34-1.63c0.34,0,0.69,0.03,1.02,0.09c1.09,0.19,1.89,0.64,2.36,1.34c0.46,0.67,0.55,1.44,0.55,1.95
		C24.51,27.3,24.47,27.53,24.47,27.55z" class="color000000 svgShape"/><path fill="red" d="M24.51,26.96c0,0.34-0.04,0.57-0.04,0.59C19.39,43.74,9.14,48.27,4.85,48.82
		c5.64-3.68,11.65-15.79,13.49-19.72c0.33-0.71,0.36-1.25,0.11-1.66c-0.23-0.36-0.64-0.54-1.23-0.54c-1.23,0-3.13,0.8-4.5,1.55
		c-0.57,0.31-1.23,0.47-1.98,0.47c-1.84,0-3.61-0.95-4.13-1.61c-0.15-0.19-0.14-0.32-0.12-0.4c0.06-0.29,0.44-0.59,0.7-0.75
		c0.52,0.08,2.14,0.29,4.27,0.29c1.13,0,2.42-0.6,3.78-1.24c1.61-0.76,3.45-1.63,5.34-1.63c0.34,0,0.69,0.03,1.02,0.09
		c1.09,0.19,1.89,0.64,2.36,1.34C24.42,25.68,24.51,26.45,24.51,26.96z" class="colored1c24 svgShape"/><path d="M61.51,47.03c-0.18-0.73-1.46-1.67-2.3-1.67c-0.06,0-6.61-0.39-11.46-5.24c-3.82-3.82-8.43-8.17-9.97-9.6
		c7.8-3.97,16.68-8.88,16.37-10.46c-0.37-1.86-8.26-4.26-9.8-4.26c-0.73,0-0.85,0.41-0.87,0.58c-0.02,0.26,0.02,0.62,0.09,1.12
		c0.14,1.13,0.39,3.01-0.44,3.61c-1.26,0.91-5.55,5.79-6.8,7.22l-3.6-3.32c-0.21-4.87-0.06-11.97,0.96-12.89
		c0.68-0.61,2.25-2.2,2.11-3.58c-0.05-0.5-0.31-0.91-0.76-1.18c-0.06-0.04-7.1-3.56-7.48-3.56c-0.18,0-1.79,0.03-2.44,1.03
		c-0.35,0.54-0.35,1.2,0,1.97c0.36,0.79,0.74,1.4,1.08,1.94c0.68,1.07,1.18,1.85,1.18,3.57c0,2.55-1.1,33.87-1.25,38.33
		c-2.51-0.23-6.2-0.93-6.87-2.02c-0.46-0.76-0.92-0.92-1.22-0.92c-0.37,0-0.69,0.24-0.83,0.63c-0.27,0.75,0.1,2.11,1.54,3.31
		l0.18,0.15c2.31,1.93,6.18,5.15,7.06,7.2c0.34,0.78,1.09,1.21,2.13,1.21c2.06,0,5.18-1.79,5.94-4.02c0.71-2.07,0.08-5.86-0.47-9.2
		c-0.23-1.35-0.44-2.63-0.53-3.62c-0.24-2.51-0.21-8.96-0.18-12.05c2.73,4.34,10.25,16.06,12.6,17.37c0.75,0.42,2.07,0.62,4.02,0.62
		c4.43,0,10.99-1.1,11.6-1.4C61.44,47.73,61.59,47.4,61.51,47.03z M49.5,48.3c-2.18,0-3.12-0.27-3.53-0.49
		c-2.12-1.19-10.21-13.74-13.15-18.47c-0.11-0.19-0.34-0.28-0.55-0.22c-0.22,0.06-0.37,0.25-0.37,0.47
		c-0.01,0.43-0.16,10.46,0.16,13.86c0.1,1.03,0.31,2.32,0.54,3.69c0.51,3.07,1.15,6.88,0.52,8.72c-0.61,1.77-3.31,3.34-5,3.34
		c-0.63,0-1.04-0.2-1.21-0.6c-0.98-2.28-4.8-5.47-7.34-7.58l-0.18-0.14c-1.08-0.91-1.29-1.76-1.26-2.1
		c0.07,0.06,0.16,0.17,0.28,0.36c1.21,1.99,7.45,2.49,8.16,2.54c0.14,0.01,0.27-0.04,0.37-0.13c0.1-0.09,0.16-0.22,0.17-0.35
		c0.05-1.48,1.27-36.14,1.27-38.89c0-2.01-0.62-2.98-1.34-4.11c-0.33-0.53-0.68-1.08-1.01-1.81c-0.2-0.44-0.22-0.78-0.07-1.01
		c0.27-0.43,1.11-0.56,1.5-0.58c0.81,0.38,6,2.78,7.06,3.42c0.18,0.1,0.27,0.23,0.29,0.42c0.06,0.62-0.64,1.7-1.79,2.74
		c-1.76,1.59-1.37,11.84-1.28,13.88c0.01,0.13,0.07,0.26,0.16,0.35l4.13,3.8c0.1,0.1,0.23,0.14,0.36,0.14
		c0.14-0.01,0.27-0.07,0.35-0.18c1.94-2.23,5.89-6.66,6.98-7.45c1.31-0.95,1.03-3.11,0.84-4.54c-0.02-0.2-0.05-0.41-0.07-0.57
		c2.01,0.11,8.2,2.4,8.66,3.4c-0.59,1.17-8.76,5.84-16.45,9.74c-0.15,0.07-0.25,0.21-0.27,0.38c-0.03,0.16,0.03,0.32,0.15,0.43
		c0.06,0.06,5.84,5.44,10.46,10.06c4.55,4.56,10.86,5.54,12.17,5.54c0.34,0,0.94,0.42,1.2,0.71C59.1,47.38,53.57,48.3,49.5,48.3z" class="color000000 svgShape"/><path fill="red" d="M60.41,47.07c-1.31,0.31-6.84,1.23-10.91,1.23c-2.18,0-3.12-0.27-3.53-0.49
		c-2.12-1.19-10.21-13.74-13.15-18.47c-0.11-0.19-0.34-0.28-0.55-0.22c-0.22,0.06-0.37,0.25-0.37,0.47
		c-0.01,0.43-0.16,10.46,0.16,13.86c0.1,1.03,0.31,2.32,0.54,3.69c0.51,3.07,1.15,6.88,0.52,8.72c-0.61,1.77-3.31,3.34-5,3.34
		c-0.63,0-1.04-0.2-1.21-0.6c-0.98-2.28-4.8-5.47-7.34-7.58l-0.18-0.14c-1.08-0.91-1.29-1.76-1.26-2.1
		c0.07,0.06,0.16,0.17,0.28,0.36c1.21,1.99,7.45,2.49,8.16,2.54c0.14,0.01,0.27-0.04,0.37-0.13c0.1-0.09,0.16-0.22,0.17-0.35
		c0.05-1.48,1.27-36.14,1.27-38.89c0-2.01-0.62-2.98-1.34-4.11c-0.33-0.53-0.68-1.08-1.01-1.81c-0.2-0.44-0.22-0.78-0.07-1.01
		c0.27-0.43,1.11-0.56,1.5-0.58c0.81,0.38,6,2.78,7.06,3.42c0.18,0.1,0.27,0.23,0.29,0.42c0.06,0.62-0.64,1.7-1.79,2.74
		c-1.76,1.59-1.37,11.84-1.28,13.88c0.01,0.13,0.07,0.26,0.16,0.35l4.13,3.8c0.1,0.1,0.23,0.14,0.36,0.14
		c0.14-0.01,0.27-0.07,0.35-0.18c1.94-2.23,5.89-6.66,6.98-7.45c1.31-0.95,1.03-3.11,0.84-4.54c-0.02-0.2-0.05-0.41-0.07-0.57
		c2.01,0.11,8.2,2.4,8.66,3.4c-0.59,1.17-8.76,5.84-16.45,9.74c-0.15,0.07-0.25,0.21-0.27,0.38c-0.03,0.16,0.03,0.32,0.15,0.43
		c0.06,0.06,5.84,5.44,10.46,10.06c4.55,4.56,10.86,5.54,12.17,5.54C59.55,46.36,60.15,46.78,60.41,47.07z" class="colored1c24 svgShape"/></svg>