<svg xmlns="http://www.w3.org/2000/svg" enable-background="new 0 0 64 64" viewBox="0 0 64 64"><path fill="#ed1c24" d="M12.076,19.456c0,0,14.822-5.707,13.792-10.859c1.426-1.188,6.262,1.427,4.677,4.835
		c-1.585,3.408-6.341,1.744-5.945,3.25c0.396,1.506,4.122,1.506,4.122,3.646c0,2.14-2.298,4.994-1.664,6.976
		c1.823-0.159,12.047-0.476,12.047-0.476l0.317-20.133c0,0-1.902-2.299-1.823-3.567c0.079-1.269,8.481,1.03,8.878,3.17
		s-1.981,1.823-2.22,5.231s0.158,14.109,0.158,14.109s9.354-2.22,12.445-1.269c3.091,0.952,5.072,4.28,4.121,5.391
		c-0.951,1.109-16.725-1.823-16.804,0.158s0.158,20.212-0.476,24.968c-0.635,4.755-2.061,6.281-2.358,6.579
		c-0.297,0.297-2.081-2.794-2.021-10.225c0.059-7.431-0.238-21.936-0.238-21.936s-11.176,0.178-11.83,1.011
		c-0.654,0.832,0.892,12.959-6.183,19.083c-7.074,6.123-10.166,6.539-8.62,4.221c1.545-2.318,11.889-11.592,9.214-23.006
		c-2.021,0.119-11.83,3.864-13.852,3.805c-2.021-0.059-6.658-3.983-4.458-4.577c2.2-0.595,17.656-1.724,18.726-2.021
		c0.238-1.724,0.297-9.393-1.427-9.393S13.721,21.794,12.076,19.456z"/></svg> 
