<svg xmlns="http://www.w3.org/2000/svg" enable-background="new 0 0 64 64" viewBox="0 0 64 64"><path fill="#792b2b" d="M17.75,11.11v41.78c0,0.11,0.01,0.21,0.02,0.32V10.79C17.76,10.9,17.75,11,17.75,11.11z" class="color2b3379 svgShape"/><path fill="red" d="M46.23,48.05v5.16c0.01-0.11,0.02-0.21,0.02-0.32v-4.52C46.25,48.26,46.24,48.16,46.23,48.05z" class="colord62140 svgShape"/><path fill="#792b2b" d="M20.25,8.61c-1.27,0-2.32,0.95-2.48,2.18v42.42c0.16,1.23,1.211,2.18,2.48,2.18h7.01V8.61H20.25z" class="color2b3379 svgShape"/><polygon fill="#f43030" points="32 45.87 28.15 45.87 28.15 35.8 32 35.8 36.74 35.8 36.74 26.34 32 26.34 28.15 26.34 28.15 18.13 32 18.13 36.74 18.13 36.74 8.61 32 8.61 27.26 8.61 27.26 55.39 32 55.39 36.74 55.39 36.74 45.87" class="colorf4d130 svgShape"/><path fill="red" d="M41.89 35.8c1.38 0 2.5-1.12 2.5-2.5v-4.46c0-1.38-1.12-2.5-2.5-2.5H36.74v9.46H41.89zM42.82 18.13c1.38 0 2.5-1.12 2.5-2.5v-4.52c0-1.38-1.12-2.5-2.5-2.5h-6.08v9.52H42.82zM43.75 45.87h-7.01v9.52h7.01c1.27 0 2.32-.95 2.48-2.18v-5.16C46.07 46.82 45.02 45.87 43.75 45.87z" class="colord62140 svgShape"/></svg>