<svg xmlns="http://www.w3.org/2000/svg" data-name="Layer 1" viewBox="0 0 64 64"><path fill="red" d="M26.757,55.57538Q25.985,57.77466,25.25861,60H18.98246A2.98246,2.98246,0,0,1,16,57.01754V6.98246A2.98246,2.98246,0,0,1,18.98246,4H35.707q-.99014,1.77905-1.94611,3.57758c-1.38568,2.5415-2.674,5.13867-3.99933,7.7146-1.26782,2.60889-2.5874,5.18811-3.81262,7.82135S23.4566,28.356,22.2655,31.00873L20.85223,34h3.14789c3.64056.28583,7.28119.28491,10.92181.24768-.65936,1.62109-1.31256,3.24567-1.97705,4.86371-1.11255,2.69763-2.12183,5.45422-3.18774,8.17841C28.7478,50.04639,27.70374,52.78314,26.757,55.57538Z" class="color6c76a0 svgShape"/><path fill="#c58181" d="M49,41.78088v.43817A17.78091,17.78091,0,0,1,31.21912,60h-4.923q.99042-1.778,1.9469-3.57544c1.38654-2.541,2.67584-5.13751,3.99982-7.71436,1.2674-2.60907,2.59143-5.18579,3.81226-7.82153,1.22455-2.63354,2.49579-5.24048,3.68207-7.89587L41.14673,29H37.99994a59.56029,59.56029,0,0,1-10.928.75415c.66-1.6225,1.31464-3.24811,1.97931-4.86786,1.10809-2.70013,2.12183-5.45416,3.18732-8.17865,1.008-2.75732,2.053-5.49353,3.00067-8.28528q.773-2.198,1.49969-4.42236H39a10,10,0,0,1,0,20H31.21912A17.78086,17.78086,0,0,1,49,41.78088Z" class="color818cc5 svgShape"/></svg>